
<svg width="206px" height="135px" viewBox="0 0 206 135" version="1.1" xmlns="http://www.w3.org/2000/svg" xmlns:xlink="http://www.w3.org/1999/xlink">
    <!-- Generator: Sketch 45.2 (43514) - http://www.bohemiancoding.com/sketch -->
    <desc>Created with Sketch.</desc>
    <defs></defs>
    <g id="Page-1" stroke="none" stroke-width="1" fill="none" fill-rule="evenodd">
        <g id="emberconf-2021-graphic-assets" transform="translate(-213.000000, -1.000000)" fill-rule="nonzero">
            <g id="Group" transform="translate(211.461000, 0.117000)">
                <g transform="translate(0.360000, 0.072000)" id="Shape">
                    <path d="M60.51,48.479 C62.02,50.725 66.617,53.361 67.001,53.563 C67.177,53.437 71.59,50.341 70.148,45.459 C67.461,46.732 63.908,46.199 62.703,45.503" fill="#EE9A37"></path>
                    <path d="M60.211,43.978 C60.736,43.291 60.998,41.869 61.547,42.136 C63.206,42.948 63.235,47.401 61.79,49.386 C61.664,49.557 61.53,49.73 61.394,49.886 C60.5415169,47.9465969 59.7161034,45.9954074 58.918,44.033 C59.466,44.228 59.951,44.321 60.211,43.978 L60.211,43.978 Z" fill="#EE9A37"></path>
                    <g transform="translate(33.278950, 40.477022) rotate(2.000000) translate(-33.278950, -40.477022) translate(1.278950, 16.977022)">
                        <path d="M46.112,3.237 C46.112,3.237 35.21,5.974 22.175,15.103 C9.139,24.233 0.433,25.88 0.433,25.88 L9.78,33.645 L10.48,46.15 C10.48,46.15 18.713,44.882 32.223,35.373 C45.733,25.863 56.157,23.505 56.157,23.505 L46.112,3.237 Z" fill="#FBCA4F"></path>
                        <path d="M18.069,26.07 L18.475,34.55 L16.505,35.623 L12.505,29.106 L14.296,28.13 L16.726,32.657 L16.151,27.114 L18.068,26.07 L18.069,26.07 Z M19.932,24.811 L22.551,32.165 L20.851,33.207 L18.249,25.845 L19.932,24.811 Z M25.936,24.096 C26.275,24.922 26.393,25.974 25.717,26.572 L28.054,28.552 L26.222,29.782 L24.09,27.462 L25.28,30.412 L23.627,31.525 L20.726,24.275 L22.658,22.978 C24.757,21.568 25.563,23.198 25.936,24.097 L25.936,24.096 L25.936,24.096 Z M29.496,18.696 L30.131,20.474 L28.938,21.2 L30.898,26.781 L29.214,27.804 L27.254,22.224 L26.074,22.943 L25.449,21.159 L29.496,18.695 L29.496,18.696 Z M23.438,24.654 L23.061,24.907 L23.708,26.513 L23.947,26.353 C24.372,26.067 24.488,25.703 24.237,25.096 C23.977,24.45 23.755,24.441 23.437,24.654 L23.438,24.654 Z M35.185,15.687 L36.46,20.118 C37.093,22.323 36.837,23.594 35.069,24.535 C33.278,25.485 32.181,24.775 31.543,22.56 L30.309,18.283 L32.078,17.343 L33.288,21.7 C33.576,22.749 33.888,23.002 34.336,22.777 C34.814,22.535 34.951,22.118 34.703,21.16 L33.415,16.638 L35.185,15.688 L35.185,15.687 Z M39.802,13.662 L43.255,20.482 L41.436,21.285 L40.904,20.155 L39.411,20.829 L39.399,22.207 L37.472,23.068 L37.742,14.583 L39.802,13.661 L39.802,13.662 Z M44.305,11.935 L45.153,17.853 L46.877,17.218 L47.127,19.032 L43.579,20.341 L42.446,12.621 L44.305,11.935 L44.305,11.935 Z M39.163,16.179 L39.297,19.006 L40.313,18.602 L39.163,16.179 Z" fill="#1A1A3B"></path>
                        <path d="M45.134,0.217 C45.7518777,-0.0888372927 46.5009689,0.150535604 46.827,0.758 L46.846,0.797 L63.546,34.588 C63.8693627,35.2153955 63.6228954,35.9861372 62.9955,36.3094999 C62.3681045,36.6328627 61.5973627,36.3863954 61.274,35.759 L61.255,35.721 L44.555,1.929 C44.4048459,1.62506867 44.3815986,1.27393186 44.4903736,0.952857888 C44.5991487,0.631783916 44.831033,0.367081896 45.135,0.217 L45.134,0.217 Z" fill="#B48984"></path>
                    </g>
                    <path d="M59.224,50.467 C59.4839436,50.7378567 59.8671969,50.8520142 60.2329811,50.7675394 C60.5987652,50.6830645 60.8931499,50.4124122 61.008,50.055 C61.308,49.411 60.409,48.62 60.322,48.381 C60.102,47.763 60.815,47.481 60.476,46.559 C60.234,45.884 59.196,45.959 59.123,45.809 C59.1508539,45.2498703 59.1294379,44.689374 59.059,44.134 C58.867,43.675 58.443,43.309 58.049,43.541 C56.505,44.416 55.479,47.603 59.223,50.467 L59.224,50.467 Z" fill="#EE9A37"></path>
                    <path d="M71.151,45.102 C69.617,45.338 68.101,45.688 66.619,46.148 C68.039,49.58 66.925,51.088 65.712,52.783 L68.551,55.369 L70.549,48.521 L71.151,45.101 L71.151,45.102 Z" fill="#46858F"></path>
                    <polygon fill="#EE9A37" points="94.286 39.76 75.169 44.174 77.648 54.913 96.765 50.499"></polygon>
                    <path d="M108.836,45.478 C109.366,47.778 106.096,49.525 106.096,49.525 C106.096,49.525 104.896,46.097 102.465,45.14 C100.035,44.183 97.78,38.474 97.78,38.474 C104.088,38.78 107.51,41.341 108.836,45.478" fill="#46858F"></path>
                    <path d="M107.246,42.409 C107.957084,43.3278933 108.495786,44.3680276 108.836,45.479 C109.366,47.779 106.298,50.398 106.298,50.398 C106.298,50.398 106.055,47.473 104.241,46.154 L107.247,42.408 L107.246,42.408 L107.246,42.409 Z" fill="#EE9A37"></path>
                    <path d="M73.678,42.725 L86.128,51.374 L96.385,37.27 C101.145,38.877 110.097,54.555 111.346,62.69 C104.162876,65.1939926 96.8543295,67.3225367 89.45,69.067 C82.5698381,70.667842 75.5677077,71.6897456 68.517,72.122 C65.497,64.419 66.144,47.634 73.678,42.725 L73.678,42.725 Z" fill="#46858F"></path>
                    <path d="M86.36,52.382 C86.605,52.326 86.82,52.184 86.969,51.982 L97.219,37.88 C97.5003821,37.5871365 97.5844757,37.1567689 97.434032,36.7795268 C97.2835882,36.4022847 96.9264138,36.1478943 96.5207177,36.1290368 C96.1150217,36.1101793 95.7357893,36.3303401 95.551,36.692 L85.886,49.952 L74.043,41.925 C73.5710681,41.6240106 72.9455211,41.7509776 72.6282837,42.2121443 C72.3110462,42.673311 72.4161576,43.3028992 72.866,43.636 L85.548,52.232 C85.788,52.39 86.081,52.444 86.361,52.382 L86.36,52.382 Z" fill="#090513"></path>
                    <path d="M87.726,9.538 C92.715,8.937 94.69,2.88 98.662,4.308 C96.656,5.636 96.564,9.393 93.835,13.688 C93.202,14.692 86.361,9.696 87.725,9.538" fill="#EE9A37"></path>
                    <path d="M92.192,12.534 C95.611,12.35 96.705,3.154 98.655,4.277 C104.291,7.499 99.215,17.811 94.187,17.697 C91.381,17.637 91.5,12.537 92.2,12.5" fill="#E54D3A"></path>
                    <path d="M58.334,14.113 C60.382,11.808 64.492,12.235 67.872,13.115 C69.797,13.615 72.15,12.835 72.359,13.195 C72.843,14.067 70.614,16.131 68.626,16.275 C66.638,16.42 62.985,13.032 58.334,14.113" fill="#EE9A37"></path>
                    <path d="M68.876,15.722 C67.098,16.707 59.833,10.416 57.479,15.145 C55.929,18.247 62.054,23.652 66.101,23.905 C70.147,24.16 69.821,15.182 68.883,15.721" fill="#E54D3A"></path>
                    <path d="M79.205,5.716 C94.906,2.485 96.219,13.586 96.873,16.456 C97.908,20.936 102.673,27.506 103.141,29.568 C105.037,37.782 92.631,43.36 86.551,44.756 C75.741,47.236 63.918,45.112 62.241,37.854 C61.863,36.211 65.518,27.14 64.838,19.872 C64.526,16.333 67.341,8.156 79.205,5.716" fill="#EE9A37"></path>
                    <path d="M82.206,28.424 C88.345,27.006 96.89,35.572 100.891,24.896 C101.836574,26.3578655 102.59832,27.9307284 103.159,29.579 C105.056,37.794 92.649,43.371 86.569,44.767 C75.742,47.235 63.918,45.112 62.242,37.854 C62.2119834,37.1630234 62.2940453,36.471745 62.485,35.807 C68.801,41.735 74.81,30.083 82.185,28.397" fill="#FDF7F0"></path>
                    <path d="M81.252,29.029 C82.0558509,28.6057217 82.9654652,28.4253971 83.87,28.51 C84.183,28.706 84.98,29.639 84.438,30.22 C84.256,30.42 84.096,29.796 83.605,30.02 C83.028,30.278 83.53,30.989 83.063,31.08 C82.316,31.253 82.868,30.237 82.178,30.278 C81.688,30.305 81.682,30.786 81.508,30.786 C80.778,30.821 80.817,29.491 81.26,29.027" fill="#E54D3A"></path>
                    <path d="M91.04,30.946 C91.0979499,30.8783628 91.1807798,30.8370224 91.2696678,30.8313727 C91.3585557,30.8257231 91.445953,30.8562439 91.512,30.916 C91.6493925,31.0430246 91.6604835,31.2564164 91.537,31.397 C90.5613829,32.3240408 89.4287713,33.0703116 88.192,33.601 C88.111,34.579 87.959,37.399 87.844,37.685 C87.627,38.207 83.116,39.791 82.544,39.695 C82.112,39.63 79.78,37.47 78.994,36.519 C77.663,36.819 76.288,36.869 74.938,36.669 C74.8509884,36.6483483 74.7757532,36.5939586 74.7288628,36.5178086 C74.6819725,36.4416587 74.6672724,36.3499936 74.688,36.263 C74.7337024,36.083745 74.9153587,35.9748405 75.095,36.019 C76.392,36.192 77.71,36.128 78.984,35.829 C79.0193078,35.8131933 79.0573395,35.8043645 79.096,35.803 C81.4635133,35.318861 83.7883202,34.6453625 86.048,33.789 C88.265,32.931 90.182,31.899 91.039,30.946 L91.04,30.946 Z M87.494,33.951 C87.1,34.121 86.662,34.301 86.183,34.474 C84.1023474,35.2931728 81.9564403,35.9357741 79.768,36.395 C80.646,37.359 81.606,38.245 82.637,39.045 C84.213,38.645 85.749,38.101 87.224,37.419 C87.279,37.28 87.41,35.189 87.494,33.951 L87.494,33.951 Z" fill="#090513"></path>
                    <path d="M83.903,36.078 L85.411,38.49 C85.498,38.628 85.421,38.803 85.242,38.883 C85.0792628,38.9742788 84.8744299,38.9350015 84.757,38.79 L83.677,36.224 C83.6626527,36.1611187 83.699314,36.0978343 83.761,36.079 C83.8177441,36.0559412 83.8828973,36.0730439 83.921,36.121 L83.903,36.078 L83.903,36.078 Z" fill="#1D2946"></path>
                    <path d="M91.371,7.682 C87.211,4.992 90.239,1.722 89.601,0.862 C91.187,1.706 93.183,3.912 93.135,5.953 C93.087,7.993 91.65,7.869 91.348,7.687" fill="#46858F"></path>
                    <path d="M91.453,7.05 C91.133,2.082 95.569,2.63 95.874,1.6 C96.136,3.38 95.551,6.3 93.903,7.475 C92.255,8.649 91.473,7.414 91.446,7.051" fill="#6EA952"></path>
                    <path d="M92.169,6.845 C96.002,3.009 98.127,6.043 99.022,5.868 C98.792,8.28 93.485,9.718 93.066,9.468 C92.646,9.22 91.641,7.352 92.146,6.85" fill="#2F3E4A"></path>
                    <path d="M92.567,7.445 C95.331,6.367 97.124,11.545 97.612,11.786 C95.625,12.512 93.266,10.745 92.858,10.374 C91.325,8.951 92.215,7.589 92.568,7.452" fill="#FDF7F0"></path>
                    <path d="M80.303,24.096 C80.4059383,23.7215354 80.6751763,23.415105 81.0332819,23.2648373 C81.3913874,23.1145696 81.7986714,23.1371188 82.138,23.326 C83.365,24.349 84.045,25.93 86.518,27.616 C89.319,29.526 96.055,27.562 97.79,23.834 C98.834,21.54 99.393,17.761 99.546,17.231 C99.5128044,16.3076349 98.8514153,15.5271958 97.946,15.343 C97.065,15.341 90.78,15.888 82.273,21.391 C81.4285239,21.8420052 80.4843238,22.0737572 79.527,22.065 C78.827,22.101 72.224,19.7 62.695,24.111 C61.9163602,24.6563176 61.6896534,25.7096324 62.175,26.527 C62.774,26.971 64.965,30.194 66.822,31.527 C71.089,34.607 77.529,31.603 78.539,29.608 C79.3889975,27.8650519 79.9831161,26.0085998 80.303,24.096" fill="#1A1A3B"></path>
                    <path d="M68.505,30.674 C69.773,31.466 74.217,31.565 76.724,29.241 C78.138,27.938 78.395,24.521 77.189,23.761 C74.831,22.268 70.409,22.605 66.776,24.891 C66.343,25.164 63.755,27.711 68.505,30.674 M95.694,24.397 C94.927,25.675 91.03,27.77 87.717,26.844 C85.875,26.326 84.089,23.394 84.821,22.172 C86.243,19.775 90.331,18.068 94.604,18.451 C95.118,18.497 98.581,19.593 95.694,24.397" fill="#FDF7F0"></path>
                    <path d="M72.954,26.917 C73.097,27.907 72.839,28.769 72.36,28.84 C71.881,28.911 71.378,28.162 71.191,27.183 C71.005,26.203 71.306,25.331 71.786,25.259 C72.264,25.189 72.766,25.93 72.917,26.926 M91.527,22.362 C91.914,23.287 91.863,24.188 91.417,24.37 C90.971,24.55 90.307,23.957 89.92,23.032 C89.534,22.107 89.587,21.213 90.03,21.024 C90.475,20.836 91.14,21.436 91.528,22.362" fill="#1A1A3B"></path>
                    <path d="M72.464,25.917 C72.441727,25.8048169 72.3706065,25.708401 72.27,25.654 C72.1841794,25.6117889 72.0804121,25.6380484 72.025,25.716 C71.961165,25.8116135 71.94252,25.9304294 71.974,26.041 C72.027,26.226 72.179,26.339 72.311,26.294 C72.444,26.248 72.508,26.061 72.455,25.875 M90.867,21.343 C90.824,21.155 90.678,21.028 90.542,21.06 C90.406,21.091 90.331,21.269 90.374,21.456 C90.3938605,21.5423127 90.4416694,21.6196506 90.51,21.676 C90.573,21.726 90.646,21.74 90.71,21.716 C90.779243,21.6900272 90.8322204,21.6329746 90.853,21.562 C90.8810121,21.4778488 90.882756,21.387166 90.858,21.302" fill="#FDF7F0"></path>
                    <path d="M93.704,12.232 C94.026,13.086 95.664,14.32 98.063,14.081 C96.273,13.479 94.873,9.799 94.133,9.254" fill="#1A1A3B"></path>
                    <path d="M94.947,10.395 L94.368,10.443 C94.681,15.208 83.621,17.108 75.29,21.462 C76.9018806,20.2283753 78.2598381,18.6945184 79.289,16.945 C75.664,19.81 72.154,22.87 65.665,24.368 C66.22,24.114 73.236,21.323 74.675,17.333 C74.691,17.062 70.683,22.188 64.597,23.593 C65.79,22.9 70.567,19.508 70.457,18.071 C67.938,20.791 64.111,23.123 64.092,22.939 C63.631,18.656 65.588,14.051 66.268,12.911 C70.697,5.619 88.611,-0.593 94.947,10.395 L94.947,10.395 Z" fill="#1A1A3B"></path>
                </g>
                <g transform="translate(30.572000, 28.266000)" id="Shape">
                    <polygon fill="#E15D44" points="107.183 0 0 41.831 4.156 84.208 123.277 107.25 176.611 81.19 166.667 46.29"></polygon>
                    <path d="M91.487,79.208 C94.015,79.475 95.411,80.882 95.676,83.434 L95.676,84.231 C95.587,84.698 95.316,84.97 94.86,85.045 L93.856,85.045 C93.376,84.995 93.105,84.729 93.042,84.249 L93.042,83.493 C92.952,82.544 92.435,82.013 91.487,81.9 C90.49,82.013 89.946,82.544 89.857,83.493 L89.857,89.574 C89.946,90.56 90.49,91.098 91.487,91.187 C92.435,91.097 92.953,90.56 93.042,89.574 L93.042,88.761 C93.105,88.281 93.389,88.016 93.895,87.963 L94.824,87.963 C95.303,88.028 95.587,88.293 95.676,88.761 L95.676,89.574 C95.385,92.102 93.989,93.48 91.487,93.706 C88.935,93.504 87.557,92.126 87.355,89.574 L87.355,83.434 C87.545,80.882 88.923,79.474 91.487,79.208 L91.487,79.208 Z M101.648,79.208 C104.189,79.461 105.585,80.857 105.838,83.398 L105.838,89.575 C105.573,92.101 104.176,93.479 101.648,93.705 C99.123,93.466 97.739,92.09 97.498,89.575 L97.498,83.398 C97.714,80.857 99.098,79.461 101.648,79.208 Z M125.473,79.359 C125.94,79.437 126.212,79.709 126.289,80.175 L126.289,81.161 C126.212,81.666 125.935,81.931 125.455,81.956 L120.945,81.956 C120.691,81.981 120.552,82.121 120.526,82.373 L120.526,84.818 C120.552,85.071 120.691,85.203 120.944,85.218 L123.806,85.218 C124.272,85.28 124.533,85.538 124.583,85.992 L124.583,87.016 C124.533,87.51 124.266,87.762 123.786,87.776 L120.944,87.776 C120.691,87.812 120.552,87.959 120.526,88.211 L120.526,92.777 C120.489,93.257 120.23,93.524 119.749,93.574 L118.783,93.574 C118.329,93.55 118.076,93.315 118.026,92.872 L118.026,80.157 C118.037,79.715 118.259,79.447 118.689,79.359 L125.473,79.359 Z M108.385,79.379 L109.579,79.379 C110.085,79.341 110.458,79.563 110.697,80.042 C111.605099,82.2996312 112.53347,84.5490554 113.482,86.79 L113.482,80.176 C113.534,79.708 113.799,79.443 114.28,79.379 L115.265,79.379 C115.707,79.416 115.972,79.656 116.06,80.099 L116.06,89.385 C116.047982,90.5156277 116.041648,91.6463086 116.041,92.777 L116.041,92.872 C116.029,93.315 115.801,93.536 115.359,93.536 L114.147,93.536 C113.627,93.562 113.268,93.341 113.065,92.872 C112.119771,90.6531218 111.185094,88.4297634 110.261,86.202 L110.261,92.741 C110.211,93.232 109.946,93.498 109.465,93.536 L108.498,93.536 C108.044,93.498 107.791,93.257 107.74,92.816 L107.74,79.892 C107.766,79.511 107.98,79.341 108.385,79.379 L108.385,79.379 Z M101.648,81.861 C100.664,81.963 100.127,82.5 100.038,83.473 L100.038,89.593 C100.127,90.579 100.664,91.105 101.648,91.168 C102.635,91.105 103.177,90.578 103.279,89.593 L103.279,83.473 C103.177,82.487 102.635,81.949 101.649,81.861 L101.648,81.861 Z M81.621,81.771 L81.621,89.101 L48.339,81.771 L81.621,81.771 Z M163.146,81.771 L130.647,88.929 L130.647,81.771 L163.147,81.771 L163.146,81.771 Z M92.817,21.583 C95.222,20.736 97.844,21.3 99.076,26.539 C101.14,35.296 94.152,45.332 91.214,49.063 L91.185,49.099 L91.206,49.079 C92.43,47.882 94.457,46.589 96.79,47.849 L97.003,47.971 C105.643,53.384 98.558,65.312 98.558,65.312 C99.443,65.031 100.572,64.476 101.668,63.872 L102.104,63.629 C103.98,62.568 105.644,61.452 105.644,61.452 C105.644,61.452 105.736,60.135 105.789,59.833 C107.335,50.975 112.64,47.778 113.633,47.03 C114.661,46.258 123.733,42.785 124.136,52.176 C124.54,61.566 112.788,64.85 112.788,64.85 C112.788,64.85 113.827,67.56 118.146,66.867 C121.17,66.384 124.505,64.177 126.234,62.897 L126.514,62.687 C126.998,62.321 127.312,62.061 127.397,61.99 L127.42,61.97 C127.593,58.11 130.13,48.892 130.647,47.567 C131.166,46.242 134.334,46.184 134.681,46.932 C135.141,48.432 134.736,54.999 134.736,54.999 L135.082,54.883 C136.352,51.14 139,48.203 139,48.203 C139,48.203 141.132,46.128 142.86,46.631 C144.588,47.138 143.956,53.157 143.956,53.157 C143.956,53.157 143.036,59.727 145.971,60.016 C148.909,60.303 152.251,57.714 152.251,57.714 L152.3,57.696 L152.38,57.669 C152.837,57.526 154.359,57.204 154.555,59.161 C154.77,61.301 153.593,62.133 153.423,62.241 L153.403,62.253 C153.403,62.253 153.25,62.367 152.976,62.553 L152.775,62.686 C151.175,63.738 146.824,66.264 143.322,65.249 C138.944,63.982 138.713,56.079 138.713,56.079 L138.308,56.079 L133.873,68.256 C133.873,68.256 132.089,74.356 129.438,73.261 C127.002,72.254 126.853,69.544 126.845,69.111 L126.845,69.052 C126.845,69.052 122.698,73.828 115.092,73.252 C108.439,72.749 106.289,67.295 106.289,67.295 C106.289,67.295 101.842,70.596 89.337,73.058 C83.743,73.667 79.777,70.25 79.777,70.25 C79.257,70.77 75.917,72.367 75.917,72.367 C75.917,72.367 71.136,74.412 69.292,71.072 C67.448,67.733 68.658,56.896 68.658,56.896 L68.312,56.896 C68.312,56.896 67.97,57.631 67.463,58.806 L67.298,59.19 C66.361,61.384 64.986,64.806 64.106,67.904 C62.723,72.775 61.019,72.964 60.887,72.971 L60.872,72.972 C60.708,72.985 57.577,73.185 56.848,70.493 C56.098,67.728 58.058,57.47 58.058,57.47 L57.769,57.519 C57.769,57.519 57.769,57.517 57.766,57.516 C57.687,57.534 57.274,57.9 55.063,62.578 C51.228,71.882 49.98,73.27 48.016,73.146 L47.848,73.132 C47.6401908,73.1096006 47.4333593,73.0789095 47.228,73.04 C45.04,72.637 44.695,70.116 44.644,69.529 L44.637,69.439 L44.635,69.406 L41.237,71.194 C41.237,71.194 32.941,74.548 28.622,71.266 C25.744,69.079 24.76,66.709 24.42,64.256 L24.211,64.256 C23.398,64.248 20.406,64.166 18.381,63.376 C16.018,62.453 18.399,59.896 18.399,59.896 C18.399,59.896 19.125,58.746 20.507,59.896 C21.89,61.046 24.471,60.528 24.471,60.528 C24.701,58.712 25.084,56.315 26.211,53.784 C28.573,48.483 32.191,46.692 35.128,46.634 C38.066,46.577 40.141,47.374 41.927,49.908 C45.902,59.761 31.327,64.748 31.327,64.748 C31.327,64.748 30.923,67.327 34.897,67.27 C38.874,67.214 44.922,62.89 44.922,62.89 C45.047,61.475 45.546,58.75 46.125,55.985 L46.285,55.231 C47.009,51.841 47.813,48.564 48.148,47.741 C48.782,46.184 51.202,46.473 51.202,46.473 L51.226,46.468 C51.449,46.43 53.126,46.203 53.448,48.085 C53.58,48.851 53.411,50.508 53.153,52.267 L53.068,52.825 L52.979,53.385 C52.57,55.897 52.066,58.282 52.066,58.282 L52.354,58.63 C52.429,58.279 53.266,56.751 54.189,55.137 L54.468,54.652 C55.588,52.707 56.732,50.794 56.732,50.794 C56.732,50.794 59.152,46.588 62.84,46.76 C66.526,46.932 62.667,58.227 62.667,58.227 L62.954,58.572 L63.243,58.052 C63.704,56.782 69.176,48.489 69.176,48.489 C69.176,48.489 71.251,46.069 73.151,46.645 C75.051,47.221 75.168,48.085 75.284,49.7 C75.331,50.369 75.081,52.407 74.773,54.564 L74.687,55.154 L74.644,55.449 L74.556,56.037 C74.174,58.572 73.786,60.874 73.786,60.874 C73.786,60.874 72.863,67.154 74.937,67.038 C77.012,66.925 79.257,64.736 79.257,64.736 C79.257,64.736 80.347,56.416 81.342,47.794 L81.472,46.668 L81.514,46.293 L81.599,45.543 L81.683,44.795 C81.78,43.925 81.875,43.06 81.966,42.21 C83.061,32.012 87.785,25.157 87.785,25.157 C87.785,25.157 89.166,23.025 92.817,21.583 L92.817,21.583 Z M93.255,53.671 C93.113,53.595 88.215,51.012 86.115,57.994 C83.983,65.081 84.732,67.616 84.732,67.616 C84.732,67.616 91.299,70.498 94.007,63.409 C96.714,56.325 93.258,53.673 93.258,53.673 L93.255,53.671 Z M36.857,51.947 C35.301,50.447 30.807,53.444 30.634,60.3 C30.634,60.3 31.961,60.703 34.898,58.686 C37.836,56.67 38.413,53.444 36.857,51.946 L36.857,51.947 Z M118.089,51.772 C118.089,51.772 116.244,49.41 113.882,53.732 C111.521,58.052 112.154,60.3 112.154,60.3 L112.23,60.302 L112.322,60.302 C113.026,60.298 115.803,60.091 117.801,57.247 C120.104,53.962 118.089,51.772 118.089,51.772 Z M94.18,28.27 C93.226,23.213 89.312,33.218 89.117,33.722 L89.11,33.742 L88.993,34.147 L88.921,34.399 C88.2211063,36.8563958 87.5626795,39.3254131 86.946,41.805 L86.787,42.458 C86.16,45.064 85.639,47.577 85.595,48.893 C85.595,48.893 88.331,44.476 90.726,39.573 L91.036,38.932 C92.986,34.853 94.612,30.56 94.18,28.27 L94.18,28.27 Z M59.1,27.915 C61.066,28.12 62.147,29.206 62.343,31.173 L62.343,35.943 C62.147,37.909 61.066,38.975 59.099,39.143 C57.123,38.966 56.047,37.899 55.871,35.943 L55.871,31.173 C56.047,29.206 57.123,28.12 59.099,27.915 L59.1,27.915 Z M51.1,27.915 C53.067,28.12 54.143,29.206 54.33,31.173 C54.32,31.447 54.3,31.716 54.271,31.98 C54.1375839,32.3455633 53.938668,32.6837542 53.684,32.978 C52.6947427,34.3493707 51.6967223,35.7143986 50.69,37.073 L53.757,37.073 C54.119,37.122 54.335,37.317 54.403,37.66 L54.403,38.423 C54.335,38.795 54.115,39 53.743,39.039 L48.576,39.039 C48.204,39 47.999,38.795 47.961,38.423 L47.961,37.66 C47.961,37.552 47.989,37.454 48.048,37.366 C49.517252,35.511103 50.9364301,33.617087 52.304,31.686 C52.304,31.471 52.309,31.261 52.319,31.056 C52.173,30.39 51.766,30.033 51.101,29.984 C50.328,30.053 49.911,30.474 49.854,31.247 L49.854,31.804 C49.804,32.175 49.594,32.382 49.222,32.421 L48.474,32.421 C48.092,32.371 47.897,32.161 47.887,31.79 L47.887,31.173 C48.043,29.197 49.114,28.111 51.101,27.914 L51.1,27.915 Z M67.024,27.915 C68.991,28.12 70.067,29.206 70.254,31.173 C70.244,31.447 70.224,31.716 70.194,31.98 C70.0605839,32.3455633 69.861668,32.6837542 69.607,32.978 C68.6180749,34.3493677 67.6203879,35.7143957 66.614,37.073 L69.681,37.073 C70.042,37.122 70.258,37.317 70.327,37.66 L70.327,38.423 C70.258,38.795 70.038,39 69.667,39.039 L64.5,39.039 C64.128,39 63.923,38.795 63.884,38.423 L63.884,37.66 C63.884,37.552 63.913,37.454 63.972,37.366 C65.441252,35.511103 66.8604301,33.617087 68.228,31.686 C68.228,31.471 68.233,31.261 68.243,31.056 C68.096,30.39 67.69,30.033 67.024,29.984 C66.251,30.053 65.835,30.474 65.777,31.247 L65.777,31.804 C65.728,32.175 65.518,32.382 65.146,32.421 L64.398,32.421 C64.016,32.371 63.82,32.161 63.811,31.79 L63.811,31.173 C63.967,29.197 65.038,28.111 67.024,27.914 L67.024,27.915 Z M75.537,27.93 C75.889,27.988 76.094,28.199 76.153,28.56 L76.153,29.162 C76.133,30.767 76.123,32.372 76.123,33.976 L76.123,38.423 C76.084,38.785 75.889,38.99 75.537,39.039 L74.759,39.039 C74.406,38.999 74.206,38.809 74.157,38.467 L74.157,30.586 C73.687,30.889 73.207,31.183 72.719,31.466 C72.5850719,31.5779018 72.4220489,31.6493544 72.249,31.672 C71.985,31.604 71.853,31.427 71.853,31.143 L71.853,30.203 C71.813,29.813 71.98,29.524 72.353,29.339 C72.528,29.231 72.704,29.118 72.881,29.001 C73.242,28.785 73.599,28.561 73.951,28.326 C74.088,28.237 74.226,28.16 74.362,28.091 C74.4825483,27.9821568 74.6406803,27.924426 74.803,27.93 L75.537,27.93 L75.537,27.93 Z M59.099,29.984 C58.327,30.072 57.905,30.497 57.838,31.261 L57.838,35.957 C57.915,36.72 58.336,37.137 59.099,37.204 C59.863,37.136 60.283,36.72 60.362,35.957 L60.362,31.26 C60.283,30.487 59.863,30.061 59.099,29.983 L59.099,29.984 Z" fill="#FEFEFE"></path>
                </g>
            </g>
        </g>
    </g>
</svg>
